<svg id="Calque_1" data-name="Calque 1" xmlns="http://www.w3.org/2000/svg" viewBox="0 0 530 347"><defs><style>.cls-1{fill:#0a0d1a;fill-rule:evenodd;}</style></defs><path class="cls-1" d="M23.57,0H83.41C70.9,0,60.77,10.55,60.77,23.54S70.92,47.07,83.44,47.07s22.68-10.54,22.68-23.53S96,0,83.48,0h60.69a23.54,23.54,0,1,0,.08,0h60.69A23.54,23.54,0,1,0,205,0h59.83c-12.5,0-22.64,10.55-22.64,23.54s10.16,23.53,22.68,23.53,22.68-10.54,22.68-23.53S277.43,0,264.93,0H325.6a23.53,23.53,0,1,0,.1,0h60.66a23.54,23.54,0,1,0,.1,0h59.82c-12.51,0-22.64,10.55-22.64,23.54s10.16,23.53,22.68,23.53S469,36.53,469,23.54,458.88,0,446.37,0h59.81a23.54,23.54,0,1,0,.11,0H530V347H506.23a23.54,23.54,0,1,0-23.53-23.54A23.54,23.54,0,0,0,506.23,347H446.32c12.53,0,22.68-10.54,22.68-23.54s-10.15-23.53-22.68-23.53-22.68,10.54-22.68,23.53S433.8,347,446.32,347H386.41a23.54,23.54,0,1,0-23.53-23.54A23.54,23.54,0,0,0,386.41,347H0V323.47a23.54,23.54,0,1,0,23.54-23.54A23.53,23.53,0,0,0,0,323.47v-60a23.54,23.54,0,1,0,23.54-23.53A23.54,23.54,0,0,0,0,263.46v-60a23.54,23.54,0,1,0,23.54-23.53A23.54,23.54,0,0,0,0,203.46v-60a23.54,23.54,0,1,0,23.54-23.54A23.53,23.53,0,0,0,0,143.47v-60A23.54,23.54,0,1,0,23.54,59.93,23.53,23.53,0,0,0,0,83.47V23.54A23.54,23.54,0,1,0,23.57,0ZM0,23.54V0H23.5A23.54,23.54,0,0,0,0,23.54ZM83.44,347c12.53,0,22.68-10.54,22.68-23.54S96,299.93,83.44,299.93s-22.67,10.54-22.67,23.53S70.92,347,83.44,347Zm84.31-23.54a23.54,23.54,0,1,1-23.54-23.53A23.54,23.54,0,0,1,167.75,323.46ZM264.88,347c12.53,0,22.68-10.54,22.68-23.54s-10.15-23.53-22.68-23.53-22.68,10.54-22.68,23.53S252.36,347,264.88,347ZM205,347a23.54,23.54,0,1,0-23.53-23.54A23.54,23.54,0,0,0,205,347Zm120.68,0a23.54,23.54,0,1,0-23.54-23.54A23.53,23.53,0,0,0,325.65,347ZM106.12,263.46c0,13-10.15,23.54-22.68,23.54s-22.67-10.54-22.67-23.54,10.15-23.53,22.67-23.53S106.12,250.47,106.12,263.46ZM144.21,287a23.54,23.54,0,1,0-23.54-23.54A23.54,23.54,0,0,0,144.21,287Zm143.35-23.54c0,13-10.15,23.54-22.68,23.54s-22.68-10.54-22.68-23.54,10.16-23.53,22.68-23.53S287.56,250.47,287.56,263.46ZM446.32,287c12.53,0,22.68-10.54,22.68-23.54s-10.15-23.53-22.68-23.53-22.68,10.54-22.68,23.53S433.8,287,446.32,287ZM228.51,263.46A23.54,23.54,0,1,1,205,239.93,23.54,23.54,0,0,1,228.51,263.46ZM386.41,287a23.54,23.54,0,1,0-23.53-23.54A23.54,23.54,0,0,0,386.41,287Zm-37.23-23.54a23.54,23.54,0,1,1-23.53-23.53A23.53,23.53,0,0,1,349.18,263.46ZM506.23,287a23.54,23.54,0,1,0-23.53-23.54A23.54,23.54,0,0,0,506.23,287ZM83.44,227c12.53,0,22.68-10.54,22.68-23.54S96,179.93,83.44,179.93s-22.67,10.54-22.67,23.53S70.92,227,83.44,227Zm84.31-23.54a23.54,23.54,0,1,1-23.54-23.53A23.54,23.54,0,0,1,167.75,203.46ZM264.88,227c12.53,0,22.68-10.54,22.68-23.54s-10.15-23.53-22.68-23.53-22.68,10.54-22.68,23.53S252.36,227,264.88,227ZM469,203.46c0,13-10.15,23.54-22.68,23.54s-22.68-10.54-22.68-23.54,10.16-23.53,22.68-23.53S469,190.47,469,203.46ZM205,227a23.54,23.54,0,1,0-23.53-23.54A23.54,23.54,0,0,0,205,227Zm205-23.54a23.54,23.54,0,1,1-23.54-23.53A23.54,23.54,0,0,1,410,203.46ZM325.65,227a23.54,23.54,0,1,0-23.54-23.54A23.53,23.53,0,0,0,325.65,227Zm204.12-23.54a23.54,23.54,0,1,1-23.54-23.53A23.54,23.54,0,0,1,529.77,203.46Zm-423.65-60c0,13-10.15,23.54-22.68,23.54s-22.67-10.54-22.67-23.54,10.15-23.53,22.67-23.53S106.12,130.47,106.12,143.46ZM144.21,167a23.54,23.54,0,1,0-23.54-23.54A23.54,23.54,0,0,0,144.21,167Zm143.35-23.54c0,13-10.15,23.54-22.68,23.54s-22.68-10.54-22.68-23.54,10.16-23.53,22.68-23.53S287.56,130.47,287.56,143.46ZM446.32,167c12.53,0,22.68-10.54,22.68-23.54s-10.15-23.53-22.68-23.53-22.68,10.54-22.68,23.53S433.8,167,446.32,167ZM228.51,143.46A23.54,23.54,0,1,1,205,119.93,23.54,23.54,0,0,1,228.51,143.46ZM386.41,167a23.54,23.54,0,1,0-23.53-23.54A23.54,23.54,0,0,0,386.41,167Zm-37.23-23.54a23.54,23.54,0,1,1-23.53-23.53A23.53,23.53,0,0,1,349.18,143.46ZM506.23,167a23.54,23.54,0,1,0-23.53-23.54A23.54,23.54,0,0,0,506.23,167ZM83.44,107c12.53,0,22.68-10.54,22.68-23.54S96,59.93,83.44,59.93,60.77,70.47,60.77,83.46,70.92,107,83.44,107Zm84.31-23.54a23.54,23.54,0,1,1-23.54-23.53A23.54,23.54,0,0,1,167.75,83.46ZM264.88,107c12.53,0,22.68-10.54,22.68-23.54s-10.15-23.53-22.68-23.53S242.2,70.47,242.2,83.46,252.36,107,264.88,107ZM469,83.46c0,13-10.15,23.54-22.68,23.54s-22.68-10.54-22.68-23.54,10.16-23.53,22.68-23.53S469,70.47,469,83.46ZM205,107a23.54,23.54,0,1,0-23.53-23.54A23.54,23.54,0,0,0,205,107ZM410,83.46a23.54,23.54,0,1,1-23.54-23.53A23.54,23.54,0,0,1,410,83.46ZM325.65,107a23.54,23.54,0,1,0-23.54-23.54A23.53,23.53,0,0,0,325.65,107ZM529.77,83.46a23.54,23.54,0,1,1-23.54-23.53A23.54,23.54,0,0,1,529.77,83.46Z"/></svg>