<svg data-name="Calque 1" xmlns="http://www.w3.org/2000/svg" viewBox="0 0 530 347"><path d="M23.57 0h59.84C70.9 0 60.77 10.55 60.77 23.54s10.15 23.53 22.67 23.53 22.68-10.54 22.68-23.53S96 0 83.48 0h60.69a23.54 23.54 0 10.08 0h60.69a23.54 23.54 0 10.06 0h59.83c-12.5 0-22.64 10.55-22.64 23.54s10.16 23.53 22.68 23.53 22.68-10.54 22.68-23.53S277.43 0 264.93 0h60.67a23.53 23.53 0 10.1 0h60.66a23.54 23.54 0 10.1 0h59.82c-12.51 0-22.64 10.55-22.64 23.54s10.16 23.53 22.68 23.53S469 36.53 469 23.54 458.88 0 446.37 0h59.81a23.54 23.54 0 10.11 0H530v347h-23.77a23.54 23.54 0 10-23.53-23.54A23.54 23.54 0 00506.23 347h-59.91c12.53 0 22.68-10.54 22.68-23.54s-10.15-23.53-22.68-23.53-22.68 10.54-22.68 23.53S433.8 347 446.32 347h-59.91a23.54 23.54 0 10-23.53-23.54A23.54 23.54 0 00386.41 347H0v-23.53a23.54 23.54 0 1023.54-23.54A23.53 23.53 0 000 323.47v-60a23.54 23.54 0 1023.54-23.53A23.54 23.54 0 000 263.46v-60a23.54 23.54 0 1023.54-23.53A23.54 23.54 0 000 203.46v-60a23.54 23.54 0 1023.54-23.54A23.53 23.53 0 000 143.47v-60a23.54 23.54 0 1023.54-23.54A23.53 23.53 0 000 83.47V23.54A23.54 23.54 0 1023.57 0zM0 23.54V0h23.5A23.54 23.54 0 000 23.54zM83.44 347c12.53 0 22.68-10.54 22.68-23.54S96 299.93 83.44 299.93s-22.67 10.54-22.67 23.53S70.92 347 83.44 347zm84.31-23.54a23.54 23.54 0 11-23.54-23.53 23.54 23.54 0 0123.54 23.53zM264.88 347c12.53 0 22.68-10.54 22.68-23.54s-10.15-23.53-22.68-23.53-22.68 10.54-22.68 23.53S252.36 347 264.88 347zM205 347a23.54 23.54 0 10-23.53-23.54A23.54 23.54 0 00205 347zm120.68 0a23.54 23.54 0 10-23.54-23.54A23.53 23.53 0 00325.65 347zm-219.56-83.54c0 13-10.15 23.54-22.68 23.54s-22.67-10.54-22.67-23.54 10.15-23.53 22.67-23.53 22.68 10.54 22.68 23.53zM144.21 287a23.54 23.54 0 10-23.54-23.54A23.54 23.54 0 00144.21 287zm143.35-23.54c0 13-10.15 23.54-22.68 23.54s-22.68-10.54-22.68-23.54 10.16-23.53 22.68-23.53 22.68 10.54 22.68 23.53zM446.32 287c12.53 0 22.68-10.54 22.68-23.54s-10.15-23.53-22.68-23.53-22.68 10.54-22.68 23.53S433.8 287 446.32 287zm-217.81-23.54A23.54 23.54 0 11205 239.93a23.54 23.54 0 0123.51 23.53zM386.41 287a23.54 23.54 0 10-23.53-23.54A23.54 23.54 0 00386.41 287zm-37.23-23.54a23.54 23.54 0 11-23.53-23.53 23.53 23.53 0 0123.53 23.53zM506.23 287a23.54 23.54 0 10-23.53-23.54A23.54 23.54 0 00506.23 287zM83.44 227c12.53 0 22.68-10.54 22.68-23.54S96 179.93 83.44 179.93s-22.67 10.54-22.67 23.53S70.92 227 83.44 227zm84.31-23.54a23.54 23.54 0 11-23.54-23.53 23.54 23.54 0 0123.54 23.53zM264.88 227c12.53 0 22.68-10.54 22.68-23.54s-10.15-23.53-22.68-23.53-22.68 10.54-22.68 23.53S252.36 227 264.88 227zM469 203.46c0 13-10.15 23.54-22.68 23.54s-22.68-10.54-22.68-23.54 10.16-23.53 22.68-23.53S469 190.47 469 203.46zM205 227a23.54 23.54 0 10-23.53-23.54A23.54 23.54 0 00205 227zm205-23.54a23.54 23.54 0 11-23.54-23.53A23.54 23.54 0 01410 203.46zM325.65 227a23.54 23.54 0 10-23.54-23.54A23.53 23.53 0 00325.65 227zm204.12-23.54a23.54 23.54 0 11-23.54-23.53 23.54 23.54 0 0123.54 23.53zm-423.65-60c0 13-10.15 23.54-22.68 23.54s-22.67-10.54-22.67-23.54 10.15-23.53 22.67-23.53 22.68 10.54 22.68 23.53zM144.21 167a23.54 23.54 0 10-23.54-23.54A23.54 23.54 0 00144.21 167zm143.35-23.54c0 13-10.15 23.54-22.68 23.54s-22.68-10.54-22.68-23.54 10.16-23.53 22.68-23.53 22.68 10.54 22.68 23.53zM446.32 167c12.53 0 22.68-10.54 22.68-23.54s-10.15-23.53-22.68-23.53-22.68 10.54-22.68 23.53S433.8 167 446.32 167zm-217.81-23.54A23.54 23.54 0 11205 119.93a23.54 23.54 0 0123.51 23.53zM386.41 167a23.54 23.54 0 10-23.53-23.54A23.54 23.54 0 00386.41 167zm-37.23-23.54a23.54 23.54 0 11-23.53-23.53 23.53 23.53 0 0123.53 23.53zM506.23 167a23.54 23.54 0 10-23.53-23.54A23.54 23.54 0 00506.23 167zM83.44 107c12.53 0 22.68-10.54 22.68-23.54S96 59.93 83.44 59.93 60.77 70.47 60.77 83.46 70.92 107 83.44 107zm84.31-23.54a23.54 23.54 0 11-23.54-23.53 23.54 23.54 0 0123.54 23.53zM264.88 107c12.53 0 22.68-10.54 22.68-23.54s-10.15-23.53-22.68-23.53-22.68 10.54-22.68 23.53S252.36 107 264.88 107zM469 83.46c0 13-10.15 23.54-22.68 23.54s-22.68-10.54-22.68-23.54 10.16-23.53 22.68-23.53S469 70.47 469 83.46zM205 107a23.54 23.54 0 10-23.53-23.54A23.54 23.54 0 00205 107zm205-23.54a23.54 23.54 0 11-23.54-23.53A23.54 23.54 0 01410 83.46zM325.65 107a23.54 23.54 0 10-23.54-23.54A23.53 23.53 0 00325.65 107zm204.12-23.54a23.54 23.54 0 11-23.54-23.53 23.54 23.54 0 0123.54 23.53z" fill="#0a0d1a" fill-rule="evenodd"/></svg>